<?xml version="1.0" encoding="UTF-8"?>
<svg height="600" width="800" xmlns="http://www.w3.org/2000/svg" xmlns:xlink="http://www.w3.org/1999/xlink">
    <g id="Notes" font-family="'LucidaGrande', 'Lucida Grande', sans-serif" font-size="13">
        <rect fill="white" height="600.0" width="800.0" x="0.0" y="0.0" />
        <g font-size="13">
            <text x="18.0" y="176.0">Small</text>
            <text x="18.0" y="376.0">Medium</text>
            <text x="18.0" y="576.0">Large</text>
        </g>
        <g font-size="9">
            <text x="250.0" y="30.0">Ultralight</text>
            <text x="450.0" y="30.0">Regular</text>
            <text x="650.0" y="30.0">Black</text>
            <text id="template-version" fill="#505050" text-anchor="end" x="785.0" y="575.0">Template v.3.0</text>
            <a href="https://wangchujiang.com/#/app">
                <text fill="#505050" text-anchor="end" x="785.0" y="590.0">https://wangchujiang.com/#/app</text>
            </a>
        </g>
    </g>
    <g id="Guides" stroke="rgb(39, 170, 225)" stroke-width="0.5">
        <path id="Capline-S" d="M18,76 l800,0" />
        <path id="H-reference" d="M85,145.755 L87.685,145.755 L113.369,79.287 L114.052,79.287 L114.052,76 L112.148,76 L85,145.755 Z M95.693,121.536 L130.996,121.536 L130.263,119.313 L96.474,119.313 L95.693,121.536 Z M139.15,145.755 L141.787,145.755 L114.638,76 L113.466,76 L113.466,79.287 L139.15,145.755 Z" stroke="none" />
        <path id="Baseline-S" d="M18,146 l800,0" />
        <path id="left-margin-Ultralight-S" d="M220,56 l0,110" />
        <path id="right-margin-Ultralight-S" d="M310,56 l0,110" />
        <path id="left-margin-Regular-S" d="M420,56 l0,110" />
        <path id="right-margin-Regular-S" d="M510,56 l0,110" />
        <path id="left-margin-Black-S" d="M620,56 l0,110" />
        <path id="right-margin-Black-S" d="M710,56 l0,110" />
        <path id="Capline-M" d="M18,276 l800,0" />
        <path id="Baseline-M" d="M18,346 l800,0" />
        <path id="Capline-L" d="M18,476 l800,0" />
        <path id="Baseline-L" d="M18,546 l800,0" />
    </g>
    <g id="Symbols">
        <g id="Ultralight-S">
            <path d="M258.709,83.098 C257.259,83.098 255.868,83.905 254.842,85.341 C253.816,86.777 253.24,88.724 253.24,90.755 C253.242,92.942 253.913,95.025 255.083,96.476 C249.551,99.37 248.514,109.724 247.59,118.868 C247.975,118.956 248.356,119.061 248.731,119.183 C249.356,119.264 250.016,119.341 250.694,119.404 C252.225,119.547 253.818,119.616 255.103,119.52 C256.388,119.425 257.328,119.065 257.507,118.886 C258.856,117.542 260.093,114.811 261.32,112.366 C261.415,112.176 261.512,111.992 261.608,111.806 C261.888,109.546 262.104,107.111 262.042,104.799 C263.132,105.405 264.285,105.923 265.501,106.353 L276.116,99.216 L275.91,98.874 L275.963,98.834 C275.93,98.822 275.897,98.81 275.864,98.798 L274.334,96.26 L265.48,102.634 C263.74,100.896 262.915,99.22 260.801,97.821 C262.843,96.637 264.175,93.849 264.178,90.754 C264.178,88.724 263.601,86.776 262.576,85.341 C261.55,83.905 260.159,83.098 258.709,83.098 Z M278.447,99.699 L276.341,101.29 C283.52,103.819 290.754,105.847 297.812,104.925 L297.812,102.715 C291.677,103.583 285.147,101.974 278.447,99.699 Z M266.317,109.548 C265.967,109.548 265.555,109.771 265.004,110.446 C264.453,111.122 263.867,112.169 263.275,113.348 C262.091,115.706 260.917,118.578 259.051,120.436 C258.093,121.39 256.755,121.592 255.265,121.702 C254.639,121.749 253.979,121.76 253.305,121.748 C256.156,124.189 257.966,127.806 257.966,131.836 C257.966,134.018 257.435,136.08 256.496,137.898 C258.075,138.24 259.863,138.412 261.755,138.396 C265.348,138.365 269.275,137.673 272.806,136.456 C272.909,135.19 272.994,133.974 273.062,132.807 L260.646,133.754 L265.469,127.83 L265.762,127.47 L273.26,126.842 C273.285,121.808 272.885,117.989 272.114,115.282 C271.499,113.119 270.665,111.681 269.717,110.805 C268.769,109.93 267.703,109.548 266.317,109.548 Z M244.613,120.722 C241.92,120.722 239.455,121.665 237.529,123.237 L243.311,128.995 C243.719,128.806 244.163,128.708 244.613,128.708 C244.956,128.708 245.285,128.764 245.595,128.868 L250.699,122.513 C248.95,121.381 246.862,120.722 244.613,120.722 Z M252.411,123.876 L247.302,130.235 C247.595,130.718 247.75,131.271 247.75,131.836 C247.75,132.297 247.647,132.736 247.464,133.132 L253.248,138.892 C254.83,136.974 255.778,134.518 255.778,131.836 C255.778,128.711 254.489,125.893 252.411,123.876 Z M235.979,124.78 C234.397,126.698 233.449,129.154 233.449,131.836 C233.449,134.961 234.738,137.779 236.816,139.797 L241.925,133.437 C241.632,132.954 241.477,132.401 241.476,131.836 C241.476,131.375 241.58,130.936 241.763,130.541 L235.979,124.78 Z M297.812,126.984 L266.872,129.572 L265.558,131.186 L297.812,128.725 L297.812,126.984 Z M245.917,134.677 C245.508,134.866 245.064,134.964 244.613,134.964 C244.28,134.964 243.948,134.91 243.632,134.805 L238.528,141.159 C240.277,142.291 242.365,142.95 244.613,142.95 C247.307,142.95 249.772,142.007 251.698,140.435 L245.917,134.677 Z" />
        </g>
        <g id="Regular-S">
            <path d="M458.709,83.098 C457.259,83.098 455.868,83.905 454.842,85.341 C453.816,86.777 453.24,88.724 453.24,90.755 C453.242,92.942 453.913,95.025 455.083,96.476 C449.551,99.37 448.514,109.724 447.59,118.868 C447.975,118.956 448.356,119.061 448.731,119.183 C449.356,119.264 450.016,119.341 450.694,119.404 C452.225,119.547 453.818,119.616 455.103,119.52 C456.388,119.425 457.328,119.065 457.507,118.886 C458.856,117.542 460.093,114.811 461.32,112.366 C461.415,112.176 461.512,111.992 461.608,111.806 C461.888,109.546 462.104,107.111 462.042,104.799 C463.132,105.405 464.285,105.923 465.501,106.353 L476.116,99.216 L475.91,98.874 L475.963,98.834 C475.93,98.822 475.897,98.81 475.864,98.798 L474.334,96.26 L465.48,102.634 C463.74,100.896 462.915,99.22 460.801,97.821 C462.843,96.637 464.175,93.849 464.178,90.754 C464.178,88.724 463.601,86.776 462.576,85.341 C461.55,83.905 460.159,83.098 458.709,83.098 Z M478.447,99.699 L476.341,101.29 C483.52,103.819 490.754,105.847 497.812,104.925 L497.812,102.715 C491.677,103.583 485.147,101.974 478.447,99.699 Z M466.317,109.548 C465.967,109.548 465.555,109.771 465.004,110.446 C464.453,111.122 463.867,112.169 463.275,113.348 C462.091,115.706 460.917,118.578 459.051,120.436 C458.093,121.39 456.755,121.592 455.265,121.702 C454.639,121.749 453.979,121.76 453.305,121.748 C456.156,124.189 457.966,127.806 457.966,131.836 C457.966,134.018 457.435,136.08 456.496,137.898 C458.075,138.24 459.863,138.412 461.755,138.396 C465.348,138.365 469.275,137.673 472.806,136.456 C472.909,135.19 472.994,133.974 473.062,132.807 L460.646,133.754 L465.469,127.83 L465.762,127.47 L473.26,126.842 C473.285,121.808 472.885,117.989 472.114,115.282 C471.499,113.119 470.665,111.681 469.717,110.805 C468.769,109.93 467.703,109.548 466.317,109.548 Z M444.613,120.722 C441.92,120.722 439.455,121.665 437.529,123.237 L443.311,128.995 C443.719,128.806 444.163,128.708 444.613,128.708 C444.956,128.708 445.285,128.764 445.595,128.868 L450.699,122.513 C448.95,121.381 446.862,120.722 444.613,120.722 Z M452.411,123.876 L447.302,130.235 C447.595,130.718 447.75,131.271 447.75,131.836 C447.75,132.297 447.647,132.736 447.464,133.132 L453.248,138.892 C454.83,136.974 455.778,134.518 455.778,131.836 C455.778,128.711 454.489,125.893 452.411,123.876 Z M435.979,124.78 C434.397,126.698 433.449,129.154 433.449,131.836 C433.449,134.961 434.738,137.779 436.816,139.797 L441.925,133.437 C441.632,132.954 441.477,132.401 441.476,131.836 C441.476,131.375 441.58,130.936 441.763,130.541 L435.979,124.78 Z M497.812,126.984 L466.872,129.572 L465.558,131.186 L497.812,128.725 L497.812,126.984 Z M445.917,134.677 C445.508,134.866 445.064,134.964 444.613,134.964 C444.28,134.964 443.948,134.91 443.632,134.805 L438.528,141.159 C440.277,142.291 442.365,142.95 444.613,142.95 C447.307,142.95 449.772,142.007 451.698,140.435 L445.917,134.677 Z" />
        </g>
        <g id="Black-S">
            <path d="M658.709,83.098 C657.259,83.098 655.868,83.905 654.842,85.341 C653.816,86.777 653.24,88.724 653.24,90.755 C653.242,92.942 653.913,95.025 655.083,96.476 C649.552,99.37 648.514,109.724 647.59,118.868 C647.975,118.956 648.356,119.061 648.731,119.183 C649.356,119.264 650.016,119.341 650.694,119.404 C652.225,119.547 653.818,119.616 655.103,119.52 C656.388,119.425 657.328,119.065 657.507,118.886 C658.856,117.542 660.093,114.811 661.32,112.366 C661.415,112.176 661.512,111.992 661.608,111.806 C661.888,109.546 662.104,107.111 662.042,104.799 C663.132,105.405 664.285,105.923 665.501,106.353 L676.116,99.216 L675.91,98.874 L675.963,98.834 C675.93,98.822 675.897,98.81 675.864,98.798 L674.334,96.26 L665.48,102.634 C663.74,100.896 662.915,99.22 660.801,97.821 C662.843,96.637 664.175,93.849 664.178,90.754 C664.178,88.724 663.601,86.776 662.576,85.341 C661.55,83.905 660.159,83.098 658.709,83.098 Z M678.447,99.699 L676.341,101.29 C683.52,103.819 690.754,105.847 697.812,104.925 L697.812,102.715 C691.677,103.583 685.147,101.974 678.447,99.699 Z M666.317,109.548 C665.967,109.548 665.555,109.771 665.004,110.446 C664.453,111.122 663.867,112.169 663.275,113.348 C662.091,115.706 660.917,118.578 659.051,120.436 C658.093,121.39 656.755,121.592 655.265,121.702 C654.639,121.749 653.979,121.76 653.305,121.748 C656.156,124.189 657.966,127.806 657.966,131.836 C657.966,134.018 657.435,136.08 656.496,137.898 C658.075,138.24 659.863,138.412 661.755,138.396 C665.348,138.365 669.275,137.673 672.806,136.456 C672.909,135.19 672.994,133.974 673.062,132.807 L660.646,133.754 L665.469,127.83 L665.762,127.47 L673.26,126.842 C673.285,121.808 672.885,117.989 672.114,115.282 C671.499,113.119 670.665,111.681 669.717,110.805 C668.769,109.93 667.703,109.548 666.317,109.548 Z M644.613,120.722 C641.92,120.722 639.455,121.665 637.529,123.237 L643.311,128.995 C643.719,128.806 644.163,128.708 644.613,128.708 C644.956,128.708 645.285,128.764 645.595,128.868 L650.699,122.513 C648.95,121.381 646.862,120.722 644.613,120.722 Z M652.411,123.876 L647.302,130.235 C647.595,130.718 647.75,131.271 647.75,131.836 C647.75,132.297 647.647,132.736 647.464,133.132 L653.248,138.892 C654.83,136.974 655.778,134.518 655.778,131.836 C655.778,128.711 654.489,125.893 652.411,123.876 Z M635.979,124.78 C634.397,126.698 633.449,129.154 633.449,131.836 C633.449,134.961 634.738,137.779 636.816,139.797 L641.925,133.437 C641.632,132.954 641.477,132.401 641.476,131.836 C641.476,131.375 641.58,130.936 641.763,130.541 L635.979,124.78 Z M697.812,126.984 L666.872,129.572 L665.558,131.186 L697.812,128.725 L697.812,126.984 Z M645.917,134.677 C645.508,134.866 645.064,134.964 644.613,134.964 C644.28,134.964 643.948,134.91 643.632,134.805 L638.528,141.159 C640.277,142.291 642.365,142.95 644.613,142.95 C647.307,142.95 649.772,142.007 651.698,140.435 L645.917,134.677 Z" />
        </g>
    </g>
</svg>