<?xml version="1.0" encoding="UTF-8"?>
<svg height="600" width="800" xmlns="http://www.w3.org/2000/svg" xmlns:xlink="http://www.w3.org/1999/xlink">
    <g id="Notes" font-family="'LucidaGrande', 'Lucida Grande', sans-serif" font-size="13">
        <rect fill="white" height="600.0" width="800.0" x="0.0" y="0.0" />
        <g font-size="13">
            <text x="18.0" y="176.0">Small</text>
            <text x="18.0" y="376.0">Medium</text>
            <text x="18.0" y="576.0">Large</text>
        </g>
        <g font-size="9">
            <text x="250.0" y="30.0">Ultralight</text>
            <text x="450.0" y="30.0">Regular</text>
            <text x="650.0" y="30.0">Black</text>
            <text id="template-version" fill="#505050" text-anchor="end" x="785.0" y="575.0">Template v.3.0</text>
            <a href="https://wangchujiang.com/#/app">
                <text fill="#505050" text-anchor="end" x="785.0" y="590.0">https://wangchujiang.com/#/app</text>
            </a>
        </g>
    </g>
    <g id="Guides" stroke="rgb(39, 170, 225)" stroke-width="0.5">
        <path id="Capline-S" d="M18,76 l800,0" />
        <path id="H-reference" d="M85,145.755 L87.685,145.755 L113.369,79.287 L114.052,79.287 L114.052,76 L112.148,76 L85,145.755 Z M95.693,121.536 L130.996,121.536 L130.263,119.313 L96.474,119.313 L95.693,121.536 Z M139.15,145.755 L141.787,145.755 L114.638,76 L113.466,76 L113.466,79.287 L139.15,145.755 Z" stroke="none" />
        <path id="Baseline-S" d="M18,146 l800,0" />
        <path id="left-margin-Ultralight-S" d="M220,56 l0,110" />
        <path id="right-margin-Ultralight-S" d="M310,56 l0,110" />
        <path id="left-margin-Regular-S" d="M420,56 l0,110" />
        <path id="right-margin-Regular-S" d="M510,56 l0,110" />
        <path id="left-margin-Black-S" d="M620,56 l0,110" />
        <path id="right-margin-Black-S" d="M710,56 l0,110" />
        <path id="Capline-M" d="M18,276 l800,0" />
        <path id="Baseline-M" d="M18,346 l800,0" />
        <path id="Capline-L" d="M18,476 l800,0" />
        <path id="Baseline-L" d="M18,546 l800,0" />
    </g>
    <g id="Symbols">
        <g id="Ultralight-S">
            <path d="M285.846,100.984 C285.846,100.984 293.253,104.179 296.603,101.857 C299.953,99.537 300.706,96.465 298.857,92.648 C297.008,88.835 291.812,87.336 291.639,82.358 C291.639,82.358 291.059,90.41 294.581,93.062 C299.562,96.821 293.714,101.249 287.733,100.506 C281.747,99.763 285.846,100.984 285.846,100.984 Z" />
            <path d="M276.424,113.674 C276.424,113.674 275.203,118.616 276.787,123.454 C277.069,124.117 276.883,124.535 276.383,124.772 C275.885,125.01 268.033,127.771 267.188,128.216 C266.418,128.621 264.967,131.677 264.839,133.766 C266.48,134.189 267.998,133.968 267.998,133.968 C267.998,133.968 268.047,130.244 268.403,129.997 C268.759,129.75 279.459,127.959 280.19,126.554 C280.921,125.148 283.323,118.994 281.769,116.264 C281.331,115.496 280.53,114.027 280.53,114.027 L276.424,113.674 Z" />
            <path d="M264.839,133.766 C264.839,133.766 263.641,137.641 264.854,137.923 C266.031,138.197 268.148,137.168 268.267,136.667 C268.424,136 268.687,134.374 268.457,134.011 C268.228,133.649 264.839,133.766 264.839,133.766 Z" />
            <path d="M252.968,118.535 L251.509,113.553 C251.509,113.553 246.131,117.646 243.852,120.541 C243.183,121.391 240.261,126.76 240.504,129.122 C240.601,130.071 241.426,134.145 241.426,134.145 L244.636,133.241 C244.636,133.241 242.085,129.554 242.651,128.259 C245.427,121.914 252.968,118.535 252.968,118.535 Z" />
            <path d="M244.931,133.213 C244.597,132.943 241.426,134.145 241.426,134.145 C241.426,134.145 241.536,138.199 242.777,138.076 C243.979,137.958 245.655,136.303 245.606,135.792 C245.54,135.109 245.266,133.484 244.931,133.213 Z" />
            <path d="M282.866,97.754 C276.182,98.058 268.852,98.606 264.393,98.606 C257.286,98.606 254.245,95.829 251.634,93.502 C247.185,89.541 245.88,85.292 241.667,86.696 C241.667,86.696 240.438,85.897 239.242,85.184 L238.734,84.888 C238.321,84.641 237.895,84.416 237.459,84.213 C237.14,84.073 236.957,84.044 237.016,84.194 C237.052,84.293 237.196,84.472 237.474,84.75 C238.392,85.668 238.787,86.597 238.89,87.462 C234.982,89.8 234.82,91.888 233.307,94.369 C232.351,95.938 230.663,98.363 230.274,99.259 C229.473,101.103 232.265,103.249 233.591,101.995 C235.328,100.352 235.46,99.814 237.542,98.604 C239.454,98.573 241.383,97.795 242.03,96.621 C242.03,96.621 243.854,100.671 245.799,103.588 C247.743,106.504 250.66,109.664 250.66,109.664 C250.405,112.05 250.893,113.895 251.727,115.346 C250.979,116.818 249.931,118.859 248.972,120.683 C247.696,123.104 246.108,126.952 246.623,127.718 C247.661,129.27 251.91,133.408 254.667,134.156 C256.67,134.701 258.828,135.006 258.828,135.006 L258.453,131.946 C258.453,131.946 255.842,132.36 254.807,131.784 C252.032,130.238 249.623,127.413 249.542,126.841 C249.406,125.894 257.01,121.265 259.536,119.754 C263.942,119.942 271.246,119.036 276.309,116.444 C278.172,120.061 282.099,121.331 282.099,121.331 C282.099,121.331 283.396,125.624 284.773,129.352 C282.796,130.388 276.085,135.679 275.099,136.846 C274.213,137.896 273.435,141.687 273.435,141.687 C275.029,142.416 276.488,142.051 276.488,142.051 C276.488,142.051 276.564,139.014 277.236,138.02 C277.909,137.026 286.377,133.044 288.821,131.296 C289.778,130.612 289.607,129.54 289.331,128.278 C288.707,125.418 287.445,118.982 287.443,118.98 C297.449,113.187 300,96.977 282.866,97.754 Z" />
            <path d="M273.431,141.687 C273.431,141.687 272.233,145.562 273.447,145.844 C274.623,146.119 276.741,145.09 276.859,144.588 C277.017,143.921 277.279,142.296 277.05,141.932 C276.82,141.569 273.431,141.687 273.431,141.687 Z M258.506,131.389 C258.181,131.673 258.824,135.004 258.824,135.004 C258.824,135.004 262.838,135.586 262.929,134.343 C263.017,133.137 261.671,131.205 261.16,131.166 C260.477,131.113 258.83,131.106 258.506,131.389 Z" />
            <path d="M278.811,97.937 C272.404,98.2 261.111,98.908 258.589,97.784 C258.712,101.521 257.275,104.793 259.173,111.132 C260.067,111.329 274.965,111.607 280.435,109.359 C279.128,103.794 279.679,101.595 278.811,97.937 Z" />
            <path d="M260.899,98.241 C260.899,98.241 259.423,105.13 265.581,105.299 C271.739,105.468 271.01,100.93 271.502,100.428 C271.994,99.926 276.787,99.668 276.787,98.359 C276.787,97.906 274.32,98.112 273.143,98.167 C272.554,98.194 266.165,98.563 260.899,98.241 Z" />
            <path d="M241.849,87.095 C240.523,88.009 238.602,87.651 238.602,87.651 C237.447,88.137 235.639,89.899 234.849,91.417 C234.06,92.936 231.884,96.598 231.884,96.598 C231.884,96.598 234.011,98.279 235.227,100.304 C235.227,100.304 236.259,99.271 237.544,98.602 C241.321,98.48 242.032,96.619 242.032,96.619 C242.032,96.619 242.092,90.801 241.849,87.095 Z M238.402,92.464 C237.91,92.464 237.508,92.063 237.508,91.571 C237.53,91.094 237.923,90.718 238.401,90.718 C238.879,90.718 239.272,91.094 239.294,91.571 C239.293,92.064 238.894,92.463 238.402,92.464 Z" />
            <path d="M237.585,91.647 C237.585,91.272 237.889,90.969 238.264,90.969 C238.639,90.969 238.942,91.272 238.943,91.647 C238.943,91.89 238.813,92.114 238.603,92.235 C238.393,92.356 238.134,92.356 237.924,92.235 C237.714,92.114 237.585,91.889 237.585,91.647 Z" />
            <path d="M238.402,89.804 C237.458,89.848 236.715,90.626 236.715,91.571 C236.715,92.516 237.458,93.294 238.402,93.339 C239.346,93.294 240.088,92.516 240.088,91.571 C240.088,90.626 239.346,89.848 238.402,89.804 Z M238.402,92.464 C237.91,92.464 237.508,92.063 237.508,91.571 C237.53,91.094 237.923,90.718 238.401,90.718 C238.879,90.718 239.272,91.094 239.294,91.571 C239.293,92.064 238.894,92.463 238.402,92.464 Z M234.931,100.601 L231.488,97.194 L231.979,96.44 L235.559,99.973 Z M241.869,87.081 L242.742,87.064 L242.923,96.588 L242.05,96.605 Z" />
            <path d="M254.607,93.636 C258.054,96.448 260.726,94.262 260.726,94.262 C258.208,93.735 256.728,92.576 255.461,91.225 C257.084,90.97 257.963,89.93 257.963,89.93 C255.9,89.905 254.416,89.347 253.131,88.571 C252.033,87.377 250.734,86.234 248.748,85.399 C248.17,85.162 247.569,84.983 246.956,84.863 C246.788,84.814 246.609,84.74 246.454,84.721 C244.597,84.479 242.715,84.893 241.132,85.893 C240.506,86.282 240.716,87.136 241.359,87.105 C244.745,86.939 246.932,88.236 248.107,90.28 C252.324,97.614 258.498,97.815 258.498,97.815 C258.498,97.815 255.989,96.477 254.607,93.636 Z M264.543,119.556 L263.841,104.844 L265.842,105.287 L266.717,119.303 C265.984,119.441 264.543,119.556 264.543,119.556 Z" />
            <path d="M234.577,100.792 C234.12,100.79 233.725,100.469 233.63,100.021 C233.535,99.574 233.765,99.12 234.182,98.933 C246.119,93.613 255.995,93.615 256.499,93.591 C257.036,93.593 257.47,94.03 257.468,94.567 C257.467,95.103 257.03,95.537 256.493,95.536 L256.485,95.536 C256.283,95.536 246.471,95.584 234.974,100.708 C234.849,100.763 234.714,100.792 234.577,100.792 Z" />
            <path d="M266.701,86.726 C265.85,83.869 260.37,84.332 260.718,81.688 L260.483,82.16 C260.431,81.744 260.319,81.338 260.151,80.954 C259.276,79.016 257.191,78.065 255.496,78.831 C254.026,79.494 252.116,79.51 252.888,82.012 C253.007,82.395 253.149,82.889 253.37,83.379 C254.249,85.316 256.966,86.617 258.663,85.851 C258.76,85.808 258.84,85.744 258.929,85.691 C259.332,85.93 260.563,86.675 262.554,88.034 C264.901,89.634 267.547,89.584 266.701,86.726 Z" />
            <path d="M253.117,78.759 C253.615,77.787 255.647,76.688 257.38,76.795 C259.334,76.918 260.421,78.273 260.87,79.971 C261.092,80.807 260.957,81.748 260.786,82.44 C260.786,82.44 258.91,82.271 259.118,82.148 C259.503,81.921 259.184,80.564 258.694,80.385 C258.179,80.196 257.992,80.702 258.064,81.092 C258.134,81.483 258.126,81.723 257.909,81.866 C257.691,82.01 256.958,80.89 256.421,80.673 C255.536,80.313 253.522,82.874 252.89,82.014 C252.497,81.478 252.501,79.963 253.117,78.759 Z" />
            <path d="M255.595,81.54 C255.595,81.54 258.671,80.074 259.46,79.85 C260.25,79.626 260.633,79.527 260.765,79.36 C260.895,79.193 260.565,78.923 260.419,78.746 C260.273,78.569 259.563,76.852 257.94,76.329 C256.586,75.893 255.603,76.113 254.862,76.416 C254.121,76.719 252.559,77.412 252.206,79.998 C252.019,81.446 252.279,82.224 252.279,82.224 C252.279,82.224 251.354,82.489 251.262,82.504 C251.171,82.52 251.181,82.749 251.611,82.856 C252.04,82.963 254.123,82.724 254.799,82.407 C255.476,82.09 255.418,81.686 255.595,81.54 Z" />
            <path d="M270.499,103.557 C270.137,102.522 270.017,102.164 269.422,100.593 C269.227,100.08 268.996,99.456 268.704,98.662 L264.944,100.111 C265.286,100.856 265.552,101.449 265.772,101.951 C266.48,103.568 266.696,104.519 266.923,105.6 L265.366,106.166 C264.613,106.493 263.789,106.814 263.697,107.98 C263.627,108.879 264.36,108.805 264.932,108.735 C265.774,108.634 270.946,107.751 271.199,107.202 C271.426,106.703 270.929,104.786 270.499,103.557 Z" />
            <path d="M264.944,100.111 C264.944,100.111 264.555,99.127 264.176,97.838 C263.444,95.345 263.077,93.339 270.886,91.353 C270.827,91.252 270.762,91.153 270.693,91.058 C268.119,87.445 262.424,83.871 263.905,83.64 C271.356,82.471 273.641,83.626 276.902,88.207 C278.51,90.467 278.722,91.305 278.426,92.467 C277.279,96.994 268.413,94.941 268.704,98.662 L264.944,100.111 Z" />
            <path d="M263.909,89.778 C266.894,91.83 268.457,89.479 270.886,91.353 L277.258,88.783 C274.767,83.99 267.771,79.93 261.974,82.903 C260.627,83.593 259.67,84.894 259.95,86.411 C260.512,89.444 262.682,88.936 263.909,89.778 Z" />
            <path d="M264.878,86.02 C264.817,85.864 264.65,85.462 264.529,85.327 C263.946,84.513 262.892,84.143 261.924,84.538 C260.789,85 260.245,86.295 260.707,87.429 C262.503,92.121 262.927,92.584 262.713,92.95 C262.655,93.008 262.037,93.502 258.196,93.125 L257.222,93.5 L257.222,95.444 L257.815,96.994 C261.556,97.362 264.347,97.216 265.801,95.312 C267.51,93.072 266.633,90.605 264.878,86.02 Z" />
            <path d="M258.198,93.125 C254.518,90.809 254.241,93.611 254.136,94.678 C254.031,95.748 253.946,96.613 257.817,96.994 L258.198,93.125 Z" />
            <path d="M265.531,106.096 L266.4,105.787 C265.451,103.419 264.395,103.802 264.318,103.831 C263.929,103.979 262.519,105.878 263.703,108.723 C263.806,108.971 264.09,109.089 264.338,108.986 C264.586,108.883 264.704,108.599 264.602,108.35 C263.876,106.608 264.326,105.14 264.662,104.996 C264.996,104.854 265.461,105.583 265.531,106.097 Z" />
        </g>
        <g id="Regular-S">
            <path d="M485.846,100.984 C485.846,100.984 493.253,104.179 496.603,101.857 C499.953,99.537 500.706,96.465 498.857,92.648 C497.008,88.835 491.812,87.336 491.639,82.358 C491.639,82.358 491.059,90.41 494.581,93.062 C499.562,96.821 493.714,101.249 487.733,100.506 C481.747,99.763 485.846,100.984 485.846,100.984 Z" />
            <path d="M476.424,113.674 C476.424,113.674 475.203,118.616 476.787,123.454 C477.069,124.117 476.883,124.535 476.383,124.772 C475.885,125.01 468.033,127.771 467.188,128.216 C466.418,128.621 464.967,131.677 464.839,133.766 C466.48,134.189 467.998,133.968 467.998,133.968 C467.998,133.968 468.047,130.244 468.403,129.997 C468.759,129.75 479.459,127.959 480.19,126.554 C480.921,125.148 483.323,118.994 481.769,116.264 C481.331,115.496 480.53,114.027 480.53,114.027 L476.424,113.674 Z" />
            <path d="M464.839,133.766 C464.839,133.766 463.641,137.641 464.854,137.923 C466.031,138.197 468.148,137.168 468.267,136.667 C468.424,136 468.687,134.374 468.457,134.011 C468.228,133.649 464.839,133.766 464.839,133.766 Z" />
            <path d="M452.968,118.535 L451.509,113.553 C451.509,113.553 446.131,117.646 443.852,120.541 C443.183,121.391 440.261,126.76 440.504,129.122 C440.601,130.071 441.426,134.145 441.426,134.145 L444.636,133.241 C444.636,133.241 442.085,129.554 442.651,128.259 C445.427,121.914 452.968,118.535 452.968,118.535 Z" />
            <path d="M444.931,133.213 C444.597,132.943 441.426,134.145 441.426,134.145 C441.426,134.145 441.536,138.199 442.777,138.076 C443.979,137.958 445.655,136.303 445.606,135.792 C445.54,135.109 445.266,133.484 444.931,133.213 Z" />
            <path d="M482.866,97.754 C476.182,98.058 468.852,98.606 464.393,98.606 C457.286,98.606 454.245,95.829 451.634,93.502 C447.185,89.541 445.88,85.292 441.667,86.696 C441.667,86.696 440.438,85.897 439.242,85.184 L438.734,84.888 C438.321,84.641 437.895,84.416 437.459,84.213 C437.14,84.073 436.957,84.044 437.016,84.194 C437.052,84.293 437.196,84.472 437.474,84.75 C438.392,85.668 438.787,86.597 438.89,87.462 C434.982,89.8 434.82,91.888 433.307,94.369 C432.351,95.938 430.663,98.363 430.274,99.259 C429.473,101.103 432.265,103.249 433.591,101.995 C435.328,100.352 435.46,99.814 437.542,98.604 C439.454,98.573 441.383,97.795 442.03,96.621 C442.03,96.621 443.854,100.671 445.799,103.588 C447.743,106.504 450.66,109.664 450.66,109.664 C450.405,112.05 450.893,113.895 451.727,115.346 C450.979,116.818 449.931,118.859 448.972,120.683 C447.696,123.104 446.108,126.952 446.623,127.718 C447.661,129.27 451.91,133.408 454.667,134.156 C456.67,134.701 458.828,135.006 458.828,135.006 L458.453,131.946 C458.453,131.946 455.842,132.36 454.807,131.784 C452.032,130.238 449.623,127.413 449.542,126.841 C449.406,125.894 457.01,121.265 459.536,119.754 C463.942,119.942 471.246,119.036 476.309,116.444 C478.172,120.061 482.099,121.331 482.099,121.331 C482.099,121.331 483.396,125.624 484.773,129.352 C482.796,130.388 476.085,135.679 475.099,136.846 C474.213,137.896 473.435,141.687 473.435,141.687 C475.029,142.416 476.488,142.051 476.488,142.051 C476.488,142.051 476.564,139.014 477.236,138.02 C477.909,137.026 486.377,133.044 488.821,131.296 C489.778,130.612 489.607,129.54 489.331,128.278 C488.707,125.418 487.445,118.982 487.443,118.98 C497.449,113.187 500,96.977 482.866,97.754 Z" />
            <path d="M473.431,141.687 C473.431,141.687 472.233,145.562 473.447,145.844 C474.623,146.119 476.741,145.09 476.859,144.588 C477.017,143.921 477.279,142.296 477.05,141.932 C476.82,141.569 473.431,141.687 473.431,141.687 Z M458.506,131.389 C458.181,131.673 458.824,135.004 458.824,135.004 C458.824,135.004 462.838,135.586 462.929,134.343 C463.017,133.137 461.671,131.205 461.16,131.166 C460.477,131.113 458.83,131.106 458.506,131.389 Z" />
            <path d="M478.811,97.937 C472.404,98.2 461.111,98.908 458.589,97.784 C458.712,101.521 457.275,104.793 459.173,111.132 C460.067,111.329 474.965,111.607 480.435,109.359 C479.128,103.794 479.679,101.595 478.811,97.937 Z" />
            <path d="M460.899,98.241 C460.899,98.241 459.423,105.13 465.581,105.299 C471.739,105.468 471.01,100.93 471.502,100.428 C471.994,99.926 476.787,99.668 476.787,98.359 C476.787,97.906 474.32,98.112 473.143,98.167 C472.554,98.194 466.165,98.563 460.899,98.241 Z" />
            <path d="M441.849,87.095 C440.523,88.009 438.602,87.651 438.602,87.651 C437.447,88.137 435.639,89.899 434.849,91.417 C434.06,92.936 431.884,96.598 431.884,96.598 C431.884,96.598 434.011,98.279 435.227,100.304 C435.227,100.304 436.259,99.271 437.544,98.602 C441.321,98.48 442.032,96.619 442.032,96.619 C442.032,96.619 442.092,90.801 441.849,87.095 Z M438.402,92.464 C437.91,92.464 437.508,92.063 437.508,91.571 C437.53,91.094 437.923,90.718 438.401,90.718 C438.879,90.718 439.272,91.094 439.294,91.571 C439.293,92.064 438.894,92.463 438.402,92.464 Z" />
            <path d="M437.585,91.647 C437.585,91.272 437.889,90.969 438.264,90.969 C438.639,90.969 438.942,91.272 438.943,91.647 C438.943,91.89 438.813,92.114 438.603,92.235 C438.393,92.356 438.134,92.356 437.924,92.235 C437.714,92.114 437.585,91.889 437.585,91.647 Z" />
            <path d="M438.402,89.804 C437.458,89.848 436.715,90.626 436.715,91.571 C436.715,92.516 437.458,93.294 438.402,93.339 C439.346,93.294 440.088,92.516 440.088,91.571 C440.088,90.626 439.346,89.848 438.402,89.804 Z M438.402,92.464 C437.91,92.464 437.508,92.063 437.508,91.571 C437.53,91.094 437.923,90.718 438.401,90.718 C438.879,90.718 439.272,91.094 439.294,91.571 C439.293,92.064 438.894,92.463 438.402,92.464 Z M434.931,100.601 L431.487,97.194 L431.979,96.44 L435.559,99.973 Z M441.869,87.081 L442.742,87.064 L442.923,96.588 L442.05,96.605 Z" />
            <path d="M454.607,93.636 C458.054,96.448 460.726,94.262 460.726,94.262 C458.208,93.735 456.728,92.576 455.461,91.225 C457.084,90.97 457.963,89.93 457.963,89.93 C455.9,89.905 454.416,89.347 453.131,88.571 C452.033,87.377 450.734,86.234 448.748,85.399 C448.17,85.162 447.569,84.983 446.956,84.863 C446.788,84.814 446.609,84.74 446.454,84.721 C444.597,84.479 442.715,84.893 441.132,85.893 C440.506,86.282 440.716,87.136 441.359,87.105 C444.745,86.939 446.932,88.236 448.107,90.28 C452.324,97.614 458.498,97.815 458.498,97.815 C458.498,97.815 455.989,96.477 454.607,93.636 Z M464.543,119.556 L463.841,104.844 L465.842,105.287 L466.717,119.303 C465.984,119.441 464.543,119.556 464.543,119.556 Z" />
            <path d="M434.577,100.792 C434.12,100.79 433.725,100.469 433.63,100.021 C433.535,99.574 433.765,99.12 434.182,98.933 C446.119,93.613 455.995,93.615 456.499,93.591 C457.036,93.593 457.47,94.03 457.468,94.567 C457.467,95.103 457.03,95.537 456.493,95.536 L456.485,95.536 C456.283,95.536 446.471,95.584 434.974,100.708 C434.849,100.763 434.714,100.792 434.577,100.792 Z" />
            <path d="M466.701,86.726 C465.85,83.869 460.37,84.332 460.718,81.688 L460.483,82.16 C460.431,81.744 460.319,81.338 460.151,80.954 C459.276,79.016 457.191,78.065 455.496,78.831 C454.026,79.494 452.116,79.51 452.888,82.012 C453.007,82.395 453.149,82.889 453.37,83.379 C454.249,85.316 456.966,86.617 458.663,85.851 C458.76,85.808 458.84,85.744 458.929,85.691 C459.332,85.93 460.563,86.675 462.554,88.034 C464.901,89.634 467.547,89.584 466.701,86.726 Z" />
            <path d="M453.117,78.759 C453.615,77.787 455.647,76.688 457.38,76.795 C459.334,76.918 460.421,78.273 460.87,79.971 C461.092,80.807 460.957,81.748 460.786,82.44 C460.786,82.44 458.91,82.271 459.118,82.148 C459.503,81.921 459.184,80.564 458.694,80.385 C458.179,80.196 457.992,80.702 458.064,81.092 C458.134,81.483 458.126,81.723 457.909,81.866 C457.691,82.01 456.958,80.89 456.421,80.673 C455.536,80.313 453.522,82.874 452.89,82.014 C452.497,81.478 452.501,79.963 453.117,78.759 Z" />
            <path d="M455.595,81.54 C455.595,81.54 458.671,80.074 459.46,79.85 C460.25,79.626 460.633,79.527 460.765,79.36 C460.895,79.193 460.565,78.923 460.419,78.746 C460.273,78.569 459.563,76.852 457.94,76.329 C456.586,75.893 455.603,76.113 454.862,76.416 C454.121,76.719 452.559,77.412 452.206,79.998 C452.019,81.446 452.279,82.224 452.279,82.224 C452.279,82.224 451.354,82.489 451.263,82.504 C451.171,82.52 451.181,82.749 451.611,82.856 C452.04,82.963 454.123,82.724 454.799,82.407 C455.476,82.09 455.418,81.686 455.595,81.54 Z" />
            <path d="M470.499,103.557 C470.137,102.522 470.017,102.164 469.422,100.593 C469.227,100.08 468.996,99.456 468.704,98.662 L464.944,100.111 C465.286,100.856 465.552,101.449 465.772,101.951 C466.48,103.568 466.696,104.519 466.923,105.6 L465.366,106.166 C464.613,106.493 463.789,106.814 463.697,107.98 C463.627,108.879 464.36,108.805 464.932,108.735 C465.774,108.634 470.946,107.751 471.199,107.202 C471.426,106.703 470.929,104.786 470.499,103.557 Z" />
            <path d="M464.944,100.111 C464.944,100.111 464.555,99.127 464.176,97.838 C463.444,95.345 463.077,93.339 470.886,91.353 C470.827,91.252 470.762,91.153 470.693,91.058 C468.119,87.445 462.424,83.871 463.905,83.64 C471.356,82.471 473.641,83.626 476.902,88.207 C478.51,90.467 478.722,91.305 478.426,92.467 C477.279,96.994 468.413,94.941 468.704,98.662 L464.944,100.111 Z" />
            <path d="M463.909,89.778 C466.894,91.83 468.457,89.479 470.886,91.353 L477.258,88.783 C474.767,83.99 467.771,79.93 461.974,82.903 C460.627,83.593 459.67,84.894 459.95,86.411 C460.512,89.444 462.682,88.936 463.909,89.778 Z" />
            <path d="M464.878,86.02 C464.817,85.864 464.65,85.462 464.529,85.327 C463.946,84.513 462.892,84.143 461.924,84.538 C460.789,85 460.245,86.295 460.707,87.429 C462.503,92.121 462.927,92.584 462.713,92.95 C462.655,93.008 462.037,93.502 458.196,93.125 L457.222,93.5 L457.222,95.444 L457.815,96.994 C461.556,97.362 464.347,97.216 465.801,95.312 C467.51,93.072 466.633,90.605 464.878,86.02 Z" />
            <path d="M458.198,93.125 C454.517,90.809 454.241,93.611 454.136,94.678 C454.031,95.748 453.946,96.613 457.817,96.994 L458.198,93.125 Z" />
            <path d="M465.531,106.096 L466.4,105.787 C465.451,103.419 464.395,103.802 464.318,103.831 C463.929,103.979 462.519,105.878 463.703,108.723 C463.806,108.971 464.09,109.089 464.338,108.986 C464.586,108.883 464.704,108.599 464.602,108.35 C463.876,106.608 464.326,105.14 464.662,104.996 C464.996,104.854 465.461,105.583 465.531,106.097 Z" />
        </g>
        <g id="Black-S">
            <path d="M685.846,100.984 C685.846,100.984 693.253,104.179 696.603,101.857 C699.953,99.537 700.706,96.465 698.857,92.648 C697.008,88.835 691.812,87.336 691.639,82.358 C691.639,82.358 691.059,90.41 694.581,93.062 C699.562,96.821 693.714,101.249 687.732,100.506 C681.747,99.763 685.846,100.984 685.846,100.984 Z" />
            <path d="M676.424,113.674 C676.424,113.674 675.203,118.616 676.787,123.454 C677.069,124.117 676.883,124.535 676.383,124.772 C675.885,125.01 668.033,127.771 667.188,128.216 C666.417,128.621 664.967,131.677 664.839,133.766 C666.48,134.189 667.998,133.968 667.998,133.968 C667.998,133.968 668.047,130.244 668.403,129.997 C668.759,129.75 679.459,127.959 680.19,126.554 C680.921,125.148 683.323,118.994 681.769,116.264 C681.331,115.496 680.53,114.027 680.53,114.027 L676.424,113.674 Z" />
            <path d="M664.839,133.766 C664.839,133.766 663.641,137.641 664.854,137.923 C666.031,138.197 668.148,137.168 668.267,136.667 C668.424,136 668.687,134.374 668.457,134.011 C668.228,133.649 664.839,133.766 664.839,133.766 Z" />
            <path d="M652.968,118.535 L651.509,113.553 C651.509,113.553 646.131,117.646 643.852,120.541 C643.183,121.391 640.261,126.76 640.504,129.122 C640.601,130.071 641.426,134.145 641.426,134.145 L644.636,133.241 C644.636,133.241 642.085,129.554 642.651,128.259 C645.427,121.914 652.968,118.535 652.968,118.535 Z" />
            <path d="M644.931,133.213 C644.597,132.943 641.426,134.145 641.426,134.145 C641.426,134.145 641.536,138.199 642.777,138.076 C643.979,137.958 645.655,136.303 645.606,135.792 C645.54,135.109 645.266,133.484 644.931,133.213 Z" />
            <path d="M682.866,97.754 C676.182,98.058 668.852,98.606 664.393,98.606 C657.286,98.606 654.245,95.829 651.634,93.502 C647.185,89.541 645.88,85.292 641.667,86.696 C641.667,86.696 640.438,85.897 639.242,85.184 L638.734,84.888 C638.321,84.641 637.895,84.416 637.459,84.213 C637.14,84.073 636.957,84.044 637.016,84.194 C637.052,84.293 637.196,84.472 637.474,84.75 C638.392,85.668 638.787,86.597 638.89,87.462 C634.982,89.8 634.82,91.888 633.307,94.369 C632.351,95.938 630.663,98.363 630.274,99.259 C629.473,101.103 632.265,103.249 633.591,101.995 C635.328,100.352 635.46,99.814 637.542,98.604 C639.454,98.573 641.383,97.795 642.03,96.621 C642.03,96.621 643.854,100.671 645.799,103.588 C647.743,106.504 650.66,109.664 650.66,109.664 C650.405,112.05 650.893,113.895 651.727,115.346 C650.979,116.818 649.931,118.859 648.972,120.683 C647.696,123.104 646.108,126.952 646.623,127.718 C647.661,129.27 651.91,133.408 654.667,134.156 C656.67,134.701 658.828,135.006 658.828,135.006 L658.453,131.946 C658.453,131.946 655.842,132.36 654.807,131.784 C652.032,130.238 649.623,127.413 649.542,126.841 C649.406,125.894 657.01,121.265 659.536,119.754 C663.942,119.942 671.246,119.036 676.309,116.444 C678.172,120.061 682.099,121.331 682.099,121.331 C682.099,121.331 683.396,125.624 684.773,129.352 C682.796,130.388 676.085,135.679 675.099,136.846 C674.213,137.896 673.435,141.687 673.435,141.687 C675.029,142.416 676.488,142.051 676.488,142.051 C676.488,142.051 676.564,139.014 677.236,138.02 C677.909,137.026 686.377,133.044 688.821,131.296 C689.778,130.612 689.607,129.54 689.331,128.278 C688.707,125.418 687.445,118.982 687.443,118.98 C697.449,113.187 700,96.977 682.866,97.754 Z" />
            <path d="M673.431,141.687 C673.431,141.687 672.233,145.562 673.447,145.844 C674.623,146.119 676.741,145.09 676.859,144.588 C677.017,143.921 677.279,142.296 677.05,141.932 C676.82,141.569 673.431,141.687 673.431,141.687 Z M658.506,131.389 C658.181,131.673 658.824,135.004 658.824,135.004 C658.824,135.004 662.838,135.586 662.929,134.343 C663.017,133.137 661.671,131.205 661.16,131.166 C660.477,131.113 658.83,131.106 658.506,131.389 Z" />
            <path d="M678.811,97.937 C672.404,98.2 661.111,98.908 658.589,97.784 C658.712,101.521 657.275,104.793 659.172,111.132 C660.067,111.329 674.965,111.607 680.435,109.359 C679.128,103.794 679.679,101.595 678.811,97.937 Z" />
            <path d="M660.899,98.241 C660.899,98.241 659.423,105.13 665.581,105.299 C671.739,105.468 671.01,100.93 671.502,100.428 C671.994,99.926 676.787,99.668 676.787,98.359 C676.787,97.906 674.32,98.112 673.143,98.167 C672.554,98.194 666.165,98.563 660.899,98.241 Z" />
            <path d="M641.849,87.095 C640.523,88.009 638.602,87.651 638.602,87.651 C637.447,88.137 635.639,89.899 634.849,91.417 C634.06,92.936 631.884,96.598 631.884,96.598 C631.884,96.598 634.011,98.279 635.227,100.304 C635.227,100.304 636.259,99.271 637.544,98.602 C641.321,98.48 642.032,96.619 642.032,96.619 C642.032,96.619 642.093,90.801 641.849,87.095 Z M638.402,92.464 C637.91,92.464 637.508,92.063 637.508,91.571 C637.53,91.094 637.923,90.718 638.401,90.718 C638.879,90.718 639.272,91.094 639.294,91.571 C639.293,92.064 638.894,92.463 638.402,92.464 Z" />
            <path d="M637.585,91.647 C637.585,91.272 637.889,90.969 638.264,90.969 C638.639,90.969 638.942,91.272 638.943,91.647 C638.943,91.89 638.813,92.114 638.603,92.235 C638.393,92.356 638.134,92.356 637.924,92.235 C637.714,92.114 637.585,91.889 637.585,91.647 Z" />
            <path d="M638.402,89.804 C637.458,89.848 636.715,90.626 636.715,91.571 C636.715,92.516 637.458,93.294 638.402,93.339 C639.346,93.294 640.088,92.516 640.088,91.571 C640.088,90.626 639.346,89.848 638.402,89.804 Z M638.402,92.464 C637.91,92.464 637.508,92.063 637.508,91.571 C637.53,91.094 637.923,90.718 638.401,90.718 C638.879,90.718 639.272,91.094 639.294,91.571 C639.293,92.064 638.894,92.463 638.402,92.464 Z M634.931,100.601 L631.487,97.194 L631.979,96.44 L635.559,99.973 Z M641.869,87.081 L642.742,87.064 L642.923,96.588 L642.05,96.605 Z" />
            <path d="M654.607,93.636 C658.054,96.448 660.726,94.262 660.726,94.262 C658.208,93.735 656.728,92.576 655.461,91.225 C657.084,90.97 657.963,89.93 657.963,89.93 C655.9,89.905 654.416,89.347 653.131,88.571 C652.032,87.377 650.734,86.234 648.748,85.399 C648.17,85.162 647.569,84.983 646.956,84.863 C646.788,84.814 646.609,84.74 646.454,84.721 C644.597,84.479 642.715,84.893 641.132,85.893 C640.506,86.282 640.716,87.136 641.359,87.105 C644.745,86.939 646.932,88.236 648.107,90.28 C652.324,97.614 658.498,97.815 658.498,97.815 C658.498,97.815 655.989,96.477 654.607,93.636 Z M664.543,119.556 L663.841,104.844 L665.842,105.287 L666.717,119.303 C665.984,119.441 664.543,119.556 664.543,119.556 Z" />
            <path d="M634.577,100.792 C634.12,100.79 633.725,100.469 633.63,100.021 C633.535,99.574 633.765,99.12 634.182,98.933 C646.119,93.613 655.995,93.615 656.499,93.591 C657.036,93.593 657.47,94.03 657.468,94.567 C657.467,95.103 657.03,95.537 656.493,95.536 L656.485,95.536 C656.283,95.536 646.471,95.584 634.974,100.708 C634.849,100.763 634.714,100.792 634.577,100.792 Z" />
            <path d="M666.701,86.726 C665.85,83.869 660.37,84.332 660.718,81.688 L660.483,82.16 C660.431,81.744 660.319,81.338 660.151,80.954 C659.276,79.016 657.191,78.065 655.496,78.831 C654.026,79.494 652.116,79.51 652.888,82.012 C653.007,82.395 653.149,82.889 653.37,83.379 C654.249,85.316 656.966,86.617 658.663,85.851 C658.76,85.808 658.84,85.744 658.929,85.691 C659.332,85.93 660.563,86.675 662.554,88.034 C664.901,89.634 667.547,89.584 666.701,86.726 Z" />
            <path d="M653.117,78.759 C653.615,77.787 655.647,76.688 657.38,76.795 C659.334,76.918 660.421,78.273 660.87,79.971 C661.092,80.807 660.958,81.748 660.786,82.44 C660.786,82.44 658.91,82.271 659.118,82.148 C659.503,81.921 659.184,80.564 658.694,80.385 C658.179,80.196 657.992,80.702 658.064,81.092 C658.134,81.483 658.126,81.723 657.909,81.866 C657.691,82.01 656.958,80.89 656.421,80.673 C655.536,80.313 653.522,82.874 652.89,82.014 C652.497,81.478 652.501,79.963 653.117,78.759 Z" />
            <path d="M655.595,81.54 C655.595,81.54 658.671,80.074 659.46,79.85 C660.25,79.626 660.633,79.527 660.765,79.36 C660.895,79.193 660.565,78.923 660.419,78.746 C660.273,78.569 659.563,76.852 657.94,76.329 C656.586,75.893 655.602,76.113 654.862,76.416 C654.121,76.719 652.559,77.412 652.206,79.998 C652.019,81.446 652.279,82.224 652.279,82.224 C652.279,82.224 651.354,82.489 651.263,82.504 C651.171,82.52 651.181,82.749 651.611,82.856 C652.04,82.963 654.123,82.724 654.799,82.407 C655.476,82.09 655.418,81.686 655.595,81.54 Z" />
            <path d="M670.499,103.557 C670.137,102.522 670.017,102.164 669.422,100.593 C669.227,100.08 668.996,99.456 668.704,98.662 L664.944,100.111 C665.286,100.856 665.552,101.449 665.772,101.951 C666.48,103.568 666.696,104.519 666.923,105.6 L665.366,106.166 C664.613,106.493 663.789,106.814 663.697,107.98 C663.627,108.879 664.36,108.805 664.932,108.735 C665.774,108.634 670.946,107.751 671.199,107.202 C671.426,106.703 670.929,104.786 670.499,103.557 Z" />
            <path d="M664.944,100.111 C664.944,100.111 664.555,99.127 664.176,97.838 C663.444,95.345 663.077,93.339 670.886,91.353 C670.827,91.252 670.762,91.153 670.693,91.058 C668.119,87.445 662.424,83.871 663.905,83.64 C671.356,82.471 673.641,83.626 676.902,88.207 C678.51,90.467 678.722,91.305 678.426,92.467 C677.279,96.994 668.412,94.941 668.704,98.662 L664.944,100.111 Z" />
            <path d="M663.909,89.778 C666.894,91.83 668.457,89.479 670.886,91.353 L677.258,88.783 C674.767,83.99 667.771,79.93 661.974,82.903 C660.627,83.593 659.67,84.894 659.95,86.411 C660.512,89.444 662.682,88.936 663.909,89.778 Z" />
            <path d="M664.878,86.02 C664.817,85.864 664.65,85.462 664.529,85.327 C663.946,84.513 662.892,84.143 661.924,84.538 C660.789,85 660.245,86.295 660.707,87.429 C662.503,92.121 662.927,92.584 662.713,92.95 C662.655,93.008 662.037,93.502 658.196,93.125 L657.222,93.5 L657.222,95.444 L657.815,96.994 C661.556,97.362 664.347,97.216 665.801,95.312 C667.51,93.072 666.633,90.605 664.878,86.02 Z" />
            <path d="M658.198,93.125 C654.518,90.809 654.241,93.611 654.136,94.678 C654.031,95.748 653.946,96.613 657.817,96.994 L658.198,93.125 Z" />
            <path d="M665.531,106.096 L666.4,105.787 C665.451,103.419 664.395,103.802 664.318,103.831 C663.929,103.979 662.519,105.878 663.703,108.723 C663.805,108.971 664.09,109.089 664.338,108.986 C664.586,108.883 664.704,108.599 664.602,108.35 C663.876,106.608 664.326,105.14 664.662,104.996 C664.996,104.854 665.461,105.583 665.531,106.097 Z" />
        </g>
    </g>
</svg>