<?xml version="1.0" encoding="UTF-8"?>
<svg height="600" width="800" xmlns="http://www.w3.org/2000/svg" xmlns:xlink="http://www.w3.org/1999/xlink">
    <g id="Notes" font-family="'LucidaGrande', 'Lucida Grande', sans-serif" font-size="13">
        <rect fill="white" height="600.0" width="800.0" x="0.0" y="0.0" />
        <g font-size="13">
            <text x="18.0" y="176.0">Small</text>
            <text x="18.0" y="376.0">Medium</text>
            <text x="18.0" y="576.0">Large</text>
        </g>
        <g font-size="9">
            <text x="250.0" y="30.0">Ultralight</text>
            <text x="450.0" y="30.0">Regular</text>
            <text x="650.0" y="30.0">Black</text>
            <text id="template-version" fill="#505050" text-anchor="end" x="785.0" y="575.0">Template v.3.0</text>
            <a href="https://wangchujiang.com/#/app">
                <text fill="#505050" text-anchor="end" x="785.0" y="590.0">https://wangchujiang.com/#/app</text>
            </a>
        </g>
    </g>
    <g id="Guides" stroke="rgb(39, 170, 225)" stroke-width="0.5">
        <path id="Capline-S" d="M18,76 l800,0" />
        <path id="H-reference" d="M85,145.755 L87.685,145.755 L113.369,79.287 L114.052,79.287 L114.052,76 L112.148,76 L85,145.755 Z M95.693,121.536 L130.996,121.536 L130.263,119.313 L96.474,119.313 L95.693,121.536 Z M139.15,145.755 L141.787,145.755 L114.638,76 L113.466,76 L113.466,79.287 L139.15,145.755 Z" stroke="none" />
        <path id="Baseline-S" d="M18,146 l800,0" />
        <path id="left-margin-Ultralight-S" d="M220,56 l0,110" />
        <path id="right-margin-Ultralight-S" d="M310,56 l0,110" />
        <path id="left-margin-Regular-S" d="M420,56 l0,110" />
        <path id="right-margin-Regular-S" d="M510,56 l0,110" />
        <path id="left-margin-Black-S" d="M620,56 l0,110" />
        <path id="right-margin-Black-S" d="M710,56 l0,110" />
        <path id="Capline-M" d="M18,276 l800,0" />
        <path id="Baseline-M" d="M18,346 l800,0" />
        <path id="Capline-L" d="M18,476 l800,0" />
        <path id="Baseline-L" d="M18,546 l800,0" />
    </g>
    <g id="Symbols">
        <g id="Ultralight-S">
            <path d="M299.942,89.646 C299.836,89.338 299.596,89.095 299.29,88.985 L294.089,87.118 L293.215,85.565 C292.925,85.05 292.427,84.685 291.848,84.564 L286.858,83.525 C285.55,83.252 284.23,83.797 283.494,84.912 L276.206,95.957 C275.692,96.737 274.867,97.268 273.943,97.413 C270.425,97.968 263.579,98.877 257.256,98.727 C254.214,98.655 251.257,99.111 248.461,100.081 C247.592,100.383 246.778,100.72 246.019,101.091 C244.61,101.009 236.316,100.765 235.068,106.224 C233.904,111.317 237.567,116.482 238.19,117.312 C238.188,117.366 238.187,117.422 238.185,117.475 C238.097,120.621 238.084,121.105 235.893,122.389 C231.673,124.863 230.598,126.254 230.489,126.405 C230.363,126.579 230.292,126.788 230.286,127.003 L230,137.443 C229.992,137.732 230.102,138.012 230.304,138.22 C230.506,138.428 230.783,138.545 231.073,138.545 L235.577,138.545 C235.922,138.545 236.246,138.379 236.447,138.099 C236.649,137.82 236.704,137.46 236.594,137.133 L236.484,136.801 C236.177,135.88 235.51,135.133 234.659,134.715 C234.754,132.519 235.409,128.416 237.758,127.284 C238.856,126.756 240.271,126.009 241.751,125.055 C241.981,126.125 242.024,127.123 241.873,128.029 C241.775,128.613 242.17,129.166 242.754,129.263 C242.814,129.273 242.873,129.278 242.932,129.278 C243.447,129.278 243.901,128.906 243.988,128.382 C244.226,126.958 244.106,125.399 243.633,123.744 C243.943,123.509 244.251,123.267 244.555,123.015 C247.248,120.786 248.999,118.394 249.759,115.906 C249.96,115.247 250.503,113.674 250.599,113.492 C251.047,112.636 251.792,111.971 252.712,111.623 C253.701,111.249 254.82,111.289 255.781,111.732 L266.357,116.614 C269.006,117.837 271.922,118.497 274.841,118.546 C276.178,124.825 275.514,129.584 275.194,131.231 C275.033,132.06 275.151,132.931 275.527,133.682 L277.519,137.666 C277.7,138.029 278.072,138.259 278.478,138.259 L282.768,138.259 C283.152,138.259 283.507,138.053 283.698,137.72 C283.889,137.387 283.888,136.977 283.694,136.646 L283.274,135.925 C282.867,135.227 282.217,134.698 281.465,134.431 L280.847,132.476 L281.718,117.789 C281.775,116.84 282.067,115.931 282.565,115.162 C283.656,113.474 284.937,110.536 284.841,106.131 C284.728,100.925 288.184,95.046 289.273,93.326 L295.053,93.661 C296.734,93.759 298.339,92.934 299.239,91.51 L299.834,90.568 C300.008,90.293 300.047,89.954 299.942,89.646 Z M237.159,106.702 C237.657,104.525 240.247,103.693 242.502,103.387 C240.448,105.187 239.193,107.414 238.806,110 C238.609,111.322 238.479,112.484 238.391,113.515 C237.477,111.679 236.607,109.12 237.159,106.702 Z M295.178,91.52 L288.777,91.149 C288.203,91.115 287.663,90.842 287.296,90.398 L286.223,89.099 C285.846,88.642 285.17,88.578 284.713,88.955 C284.257,89.333 284.192,90.009 284.57,90.465 L285.643,91.764 C286.026,92.228 286.503,92.6 287.034,92.861 C285.559,95.305 282.582,100.907 282.697,106.178 C282.785,110.242 281.523,112.822 280.763,113.998 C280.066,115.077 279.656,116.344 279.577,117.662 L278.695,132.546 C278.687,132.677 278.703,132.808 278.742,132.933 L279.6,135.65 C279.658,135.831 279.76,135.99 279.894,136.113 L279.141,136.113 L277.446,132.723 C277.28,132.392 277.229,132.008 277.3,131.639 C277.903,128.534 278.818,120.211 274.311,110.011 C274.072,109.469 273.438,109.224 272.896,109.463 C272.355,109.703 272.11,110.336 272.349,110.878 C273.193,112.788 273.833,114.632 274.314,116.383 C271.881,116.27 269.465,115.686 267.255,114.666 L256.68,109.785 C255.2,109.102 253.478,109.041 251.953,109.617 C251.953,109.617 251.953,109.617 251.953,109.617 C252.329,108.685 252.557,108.197 252.563,108.186 C252.816,107.651 252.588,107.012 252.053,106.758 C251.517,106.505 250.878,106.733 250.624,107.268 C250.57,107.382 249.286,110.116 247.708,115.279 C247.187,116.984 245.085,121.376 236.828,125.352 C232.397,127.485 232.496,135.165 232.503,135.491 C232.51,135.876 232.721,136.216 233.04,136.4 L232.175,136.4 L232.42,127.459 C232.863,127.018 234.114,125.919 236.978,124.24 C240.195,122.354 240.237,120.844 240.329,117.536 C240.376,115.87 240.44,113.588 240.928,110.317 C241.487,106.574 244.258,103.812 249.165,102.109 C251.717,101.222 254.422,100.806 257.205,100.872 C263.698,101.026 270.688,100.099 274.277,99.533 C275.795,99.293 277.151,98.421 277.997,97.139 L285.284,86.094 C285.516,85.742 285.921,85.562 286.333,85.614 L286.129,85.835 C285.726,86.269 285.752,86.948 286.186,87.35 C286.393,87.542 286.654,87.636 286.915,87.636 C287.203,87.636 287.491,87.521 287.702,87.293 L288.789,86.119 L291.368,86.656 L291.664,87.182 C291.243,87.372 290.978,87.821 291.042,88.302 C291.113,88.841 291.574,89.233 292.103,89.233 C292.151,89.233 292.198,89.229 292.246,89.223 L293.234,89.091 L297.297,90.55 C296.798,91.2 296.005,91.568 295.178,91.52 Z" />
        </g>
        <g id="Regular-S">
            <path d="M499.942,89.646 C499.836,89.338 499.596,89.095 499.29,88.985 L494.089,87.118 L493.215,85.565 C492.925,85.05 492.427,84.685 491.848,84.564 L486.858,83.525 C485.55,83.252 484.23,83.797 483.494,84.912 L476.206,95.957 C475.692,96.737 474.867,97.268 473.943,97.413 C470.425,97.968 463.579,98.877 457.256,98.727 C454.214,98.655 451.257,99.111 448.461,100.081 C447.592,100.383 446.778,100.72 446.019,101.091 C444.61,101.009 436.316,100.765 435.068,106.224 C433.904,111.317 437.567,116.482 438.19,117.312 C438.188,117.366 438.187,117.422 438.185,117.475 C438.097,120.621 438.084,121.105 435.893,122.389 C431.673,124.863 430.598,126.254 430.489,126.405 C430.363,126.579 430.292,126.788 430.286,127.003 L430,137.443 C429.992,137.732 430.102,138.012 430.304,138.22 C430.506,138.428 430.783,138.545 431.073,138.545 L435.577,138.545 C435.922,138.545 436.246,138.379 436.447,138.099 C436.649,137.82 436.704,137.46 436.594,137.133 L436.484,136.801 C436.177,135.88 435.51,135.133 434.659,134.715 C434.754,132.519 435.409,128.416 437.758,127.284 C438.856,126.756 440.271,126.009 441.751,125.055 C441.981,126.125 442.024,127.123 441.873,128.029 C441.775,128.613 442.17,129.166 442.754,129.263 C442.814,129.273 442.873,129.278 442.932,129.278 C443.447,129.278 443.901,128.906 443.988,128.382 C444.226,126.958 444.106,125.399 443.633,123.744 C443.943,123.509 444.251,123.267 444.555,123.015 C447.248,120.786 448.999,118.394 449.759,115.906 C449.96,115.247 450.503,113.674 450.599,113.492 C451.047,112.636 451.792,111.971 452.712,111.623 C453.701,111.249 454.82,111.289 455.781,111.732 L466.357,116.614 C469.006,117.837 471.922,118.497 474.841,118.546 C476.178,124.825 475.514,129.584 475.194,131.231 C475.033,132.06 475.151,132.931 475.527,133.682 L477.519,137.666 C477.7,138.029 478.072,138.259 478.478,138.259 L482.768,138.259 C483.152,138.259 483.507,138.053 483.698,137.72 C483.889,137.387 483.888,136.977 483.694,136.646 L483.274,135.925 C482.867,135.227 482.217,134.698 481.465,134.431 L480.847,132.476 L481.718,117.789 C481.775,116.84 482.067,115.931 482.565,115.162 C483.656,113.474 484.937,110.536 484.841,106.131 C484.728,100.925 488.184,95.046 489.273,93.326 L495.053,93.661 C496.734,93.759 498.339,92.934 499.239,91.51 L499.834,90.568 C500.008,90.293 500.047,89.954 499.942,89.646 Z M437.159,106.702 C437.657,104.525 440.247,103.693 442.502,103.387 C440.448,105.187 439.193,107.414 438.806,110 C438.609,111.322 438.479,112.484 438.391,113.515 C437.477,111.679 436.607,109.12 437.159,106.702 Z M495.178,91.52 L488.777,91.149 C488.203,91.115 487.663,90.842 487.296,90.398 L486.223,89.099 C485.846,88.642 485.17,88.578 484.713,88.955 C484.257,89.333 484.192,90.009 484.57,90.465 L485.643,91.764 C486.026,92.228 486.503,92.6 487.034,92.861 C485.559,95.305 482.582,100.907 482.697,106.178 C482.785,110.242 481.523,112.822 480.763,113.998 C480.066,115.077 479.656,116.344 479.577,117.662 L478.695,132.546 C478.687,132.677 478.703,132.808 478.742,132.933 L479.6,135.65 C479.658,135.831 479.76,135.99 479.894,136.113 L479.141,136.113 L477.446,132.723 C477.28,132.392 477.229,132.008 477.3,131.639 C477.903,128.534 478.818,120.211 474.311,110.011 C474.072,109.469 473.438,109.224 472.896,109.463 C472.355,109.703 472.11,110.336 472.349,110.878 C473.193,112.788 473.833,114.632 474.314,116.383 C471.881,116.27 469.465,115.686 467.255,114.666 L456.68,109.785 C455.2,109.102 453.478,109.041 451.953,109.617 C451.953,109.617 451.953,109.617 451.953,109.617 C452.329,108.685 452.557,108.197 452.563,108.186 C452.816,107.651 452.588,107.012 452.053,106.758 C451.517,106.505 450.878,106.733 450.624,107.268 C450.57,107.382 449.286,110.116 447.708,115.279 C447.187,116.984 445.085,121.376 436.828,125.352 C432.397,127.485 432.496,135.165 432.503,135.491 C432.51,135.876 432.721,136.216 433.04,136.4 L432.175,136.4 L432.42,127.459 C432.863,127.018 434.114,125.919 436.978,124.24 C440.195,122.354 440.237,120.844 440.329,117.536 C440.376,115.87 440.44,113.588 440.928,110.317 C441.487,106.574 444.258,103.812 449.165,102.109 C451.717,101.222 454.422,100.806 457.205,100.872 C463.698,101.026 470.688,100.099 474.277,99.533 C475.795,99.293 477.151,98.421 477.997,97.139 L485.284,86.094 C485.516,85.742 485.921,85.562 486.333,85.614 L486.129,85.835 C485.726,86.269 485.752,86.948 486.186,87.35 C486.393,87.542 486.654,87.636 486.915,87.636 C487.203,87.636 487.491,87.521 487.702,87.293 L488.789,86.119 L491.368,86.656 L491.664,87.182 C491.243,87.372 490.978,87.821 491.042,88.302 C491.113,88.841 491.574,89.233 492.103,89.233 C492.151,89.233 492.198,89.229 492.246,89.223 L493.234,89.091 L497.297,90.55 C496.798,91.2 496.005,91.568 495.178,91.52 Z" />
        </g>
        <g id="Black-S">
            <path d="M699.942,89.646 C699.836,89.338 699.596,89.095 699.29,88.985 L694.089,87.118 L693.215,85.565 C692.925,85.05 692.427,84.685 691.848,84.564 L686.858,83.525 C685.55,83.252 684.23,83.797 683.494,84.912 L676.206,95.957 C675.692,96.737 674.867,97.268 673.943,97.413 C670.425,97.968 663.579,98.877 657.256,98.727 C654.214,98.655 651.257,99.111 648.461,100.081 C647.592,100.383 646.778,100.72 646.019,101.091 C644.61,101.009 636.316,100.765 635.068,106.224 C633.904,111.317 637.567,116.482 638.19,117.312 C638.188,117.366 638.187,117.422 638.185,117.475 C638.097,120.621 638.084,121.105 635.893,122.389 C631.673,124.863 630.598,126.254 630.489,126.405 C630.363,126.579 630.292,126.788 630.286,127.003 L630,137.443 C629.992,137.732 630.102,138.012 630.304,138.22 C630.506,138.428 630.783,138.545 631.073,138.545 L635.577,138.545 C635.922,138.545 636.246,138.379 636.447,138.099 C636.649,137.82 636.704,137.46 636.594,137.133 L636.484,136.801 C636.177,135.88 635.51,135.133 634.659,134.715 C634.754,132.519 635.409,128.416 637.758,127.284 C638.856,126.756 640.271,126.009 641.751,125.055 C641.981,126.125 642.024,127.123 641.873,128.029 C641.775,128.613 642.17,129.166 642.754,129.263 C642.814,129.273 642.873,129.278 642.932,129.278 C643.447,129.278 643.901,128.906 643.988,128.382 C644.226,126.958 644.106,125.399 643.633,123.744 C643.943,123.509 644.251,123.267 644.555,123.015 C647.248,120.786 648.999,118.394 649.759,115.906 C649.96,115.247 650.503,113.674 650.599,113.492 C651.047,112.636 651.792,111.971 652.712,111.623 C653.701,111.249 654.82,111.289 655.781,111.732 L666.357,116.614 C669.006,117.837 671.922,118.497 674.841,118.546 C676.178,124.825 675.514,129.584 675.194,131.231 C675.033,132.06 675.151,132.931 675.527,133.682 L677.519,137.666 C677.7,138.029 678.072,138.259 678.478,138.259 L682.768,138.259 C683.152,138.259 683.507,138.053 683.698,137.72 C683.889,137.387 683.888,136.977 683.694,136.646 L683.274,135.925 C682.867,135.227 682.217,134.698 681.465,134.431 L680.847,132.476 L681.718,117.789 C681.775,116.84 682.067,115.931 682.565,115.162 C683.656,113.474 684.937,110.536 684.841,106.131 C684.728,100.925 688.184,95.046 689.273,93.326 L695.053,93.661 C696.734,93.759 698.339,92.934 699.239,91.51 L699.834,90.568 C700.008,90.293 700.047,89.954 699.942,89.646 Z M637.159,106.702 C637.657,104.525 640.247,103.693 642.502,103.387 C640.448,105.187 639.193,107.414 638.806,110 C638.609,111.322 638.479,112.484 638.391,113.515 C637.477,111.679 636.607,109.12 637.159,106.702 Z M695.178,91.52 L688.777,91.149 C688.203,91.115 687.663,90.842 687.296,90.398 L686.223,89.099 C685.846,88.642 685.17,88.578 684.713,88.955 C684.257,89.333 684.192,90.009 684.57,90.465 L685.643,91.764 C686.026,92.228 686.503,92.6 687.034,92.861 C685.559,95.305 682.582,100.907 682.697,106.178 C682.785,110.242 681.523,112.822 680.763,113.998 C680.066,115.077 679.656,116.344 679.577,117.662 L678.695,132.546 C678.687,132.677 678.703,132.808 678.742,132.933 L679.6,135.65 C679.658,135.831 679.76,135.99 679.894,136.113 L679.141,136.113 L677.446,132.723 C677.28,132.392 677.229,132.008 677.3,131.639 C677.903,128.534 678.818,120.211 674.311,110.011 C674.072,109.469 673.438,109.224 672.896,109.463 C672.355,109.703 672.11,110.336 672.349,110.878 C673.193,112.788 673.833,114.632 674.314,116.383 C671.881,116.27 669.465,115.686 667.255,114.666 L656.68,109.785 C655.2,109.102 653.478,109.041 651.953,109.617 C651.953,109.617 651.953,109.617 651.953,109.617 C652.329,108.685 652.557,108.197 652.563,108.186 C652.816,107.651 652.588,107.012 652.052,106.758 C651.517,106.505 650.878,106.733 650.624,107.268 C650.57,107.382 649.286,110.116 647.708,115.279 C647.187,116.984 645.085,121.376 636.828,125.352 C632.397,127.485 632.496,135.165 632.503,135.491 C632.51,135.876 632.721,136.216 633.04,136.4 L632.175,136.4 L632.42,127.459 C632.863,127.018 634.114,125.919 636.978,124.24 C640.195,122.354 640.237,120.844 640.329,117.536 C640.376,115.87 640.44,113.588 640.928,110.317 C641.487,106.574 644.258,103.812 649.165,102.109 C651.717,101.222 654.422,100.806 657.205,100.872 C663.698,101.026 670.688,100.099 674.277,99.533 C675.795,99.293 677.151,98.421 677.997,97.139 L685.284,86.094 C685.516,85.742 685.921,85.562 686.333,85.614 L686.129,85.835 C685.726,86.269 685.752,86.948 686.186,87.35 C686.393,87.542 686.654,87.636 686.915,87.636 C687.203,87.636 687.491,87.521 687.702,87.293 L688.789,86.119 L691.368,86.656 L691.664,87.182 C691.243,87.372 690.978,87.821 691.042,88.302 C691.113,88.841 691.574,89.233 692.103,89.233 C692.151,89.233 692.198,89.229 692.246,89.223 L693.234,89.091 L697.297,90.55 C696.798,91.2 696.005,91.568 695.178,91.52 Z" />
        </g>
    </g>
</svg>